<?xml version="1.0" encoding="iso-8859-1"?>
<!-- Generator: Adobe Illustrator 19.0.0, SVG Export Plug-In . SVG Version: 6.00 Build 0)  -->
<svg version="1.1" id="Capa_1" xmlns="http://www.w3.org/2000/svg" xmlns:xlink="http://www.w3.org/1999/xlink" x="0px" y="0px"
	 viewBox="0 0 480 480" style="enable-background:new 0 0 480 480;" xml:space="preserve">
<g>
	<path style="fill:#FF8800;" d="M344,468l-15.616-132.736c-0.256-2.172-0.384-4.357-0.384-6.544V300c0-30.928,25.072-56,56-56
		s56,25.072,56,56v28.72c0,2.187-0.128,4.372-0.384,6.544L424,468H344z"/>
	<path style="fill:#FF8800;" d="M200,468l-15.616-132.736c-0.256-2.172-0.384-4.357-0.384-6.544V300c0-30.928,25.072-56,56-56
		s56,25.072,56,56v28.72c0,2.187-0.128,4.372-0.384,6.544L280,468H200z"/>
	<path style="fill:#FF8800;" d="M56,468L40.384,335.264C40.128,333.092,40,330.907,40,328.72V300c0-30.928,25.072-56,56-56
		s56,25.072,56,56v28.72c0,2.187-0.128,4.372-0.384,6.544L136,468H56z"/>
</g>
<path style="fill:#763A02;" d="M0,460h480v16H0V460z"/>
<path style="fill:#008100;" d="M96,244v-48c0-17.673-14.327-32-32-32v48C64,229.673,78.327,244,96,244z"/>
<path style="fill:#33BC00;" d="M128,212v-48c-17.673,0-32,14.327-32,32v48C113.673,244,128,229.673,128,212z"/>
<path style="fill:#008100;" d="M240,244v-48c0-17.673-14.327-32-32-32v48C208,229.673,222.327,244,240,244z"/>
<path style="fill:#33BC00;" d="M272,212v-48c-17.673,0-32,14.327-32,32v48C257.673,244,272,229.673,272,212z"/>
<path style="fill:#008100;" d="M384,244v-48c0-17.673-14.327-32-32-32v48C352,229.673,366.327,244,384,244z"/>
<path style="fill:#33BC00;" d="M416,212v-48c-17.673,0-32,14.327-32,32v48C401.673,244,416,229.673,416,212z"/>
<g>
	<path style="fill:#FFA900;" d="M47.528,396l-1.88-16"/>
	<path style="fill:#FFA900;" d="M104,396v-16H45.648l1.88,16H104z"/>
	<path style="fill:#FFA900;" d="M104,284H42.352c-1.555,5.191-2.347,10.581-2.352,16h64V284z"/>
	<path style="fill:#FFA900;" d="M88,348h62.12l1.496-12.736c0.128-1.08,0.128-2.176,0.192-3.264H88V348z"/>
	<path style="fill:#FFA900;" d="M248,284h-61.648c-1.555,5.191-2.347,10.581-2.352,16h64V284z"/>
	<path style="fill:#FFA900;" d="M295.808,332H232v16h62.12l1.496-12.736C295.744,334.176,295.744,333.088,295.808,332z"/>
	<path style="fill:#FFA900;" d="M248,380h-58.352l1.88,16H248V380z"/>
	<path style="fill:#FFA900;" d="M392,284h-61.648c-1.555,5.191-2.347,10.581-2.352,16h64V284z"/>
	<path style="fill:#FFA900;" d="M439.808,332H376v16h62.12l1.496-12.736C439.744,334.176,439.744,333.088,439.808,332L439.808,332z"
		/>
	<path style="fill:#FFA900;" d="M392,380h-58.352l1.88,16H392V380z"/>
</g>
<path style="fill:#DE0418;" d="M240,4L240,4c22.091,0,40,17.909,40,40l0,0c0,22.091-17.909,40-40,40l0,0c-22.091,0-40-17.909-40-40
	l0,0C200,21.909,217.909,4,240,4z"/>
<g>
	<path style="fill:#FBBF00;" d="M152,36h24v16h-24V36z"/>
	<path style="fill:#FBBF00;" d="M304,36h24v16h-24V36z"/>
	<path style="fill:#FBBF00;" d="M232,108h16v24h-16V108z"/>
	<path style="fill:#FBBF00;" d="M170.347,102.333l15.998-15.998l11.314,11.314l-15.998,15.998L170.347,102.333z"/>
	<path style="fill:#FBBF00;" d="M282.344,97.661l11.314-11.314l15.998,15.998l-11.314,11.314L282.344,97.661z"/>
</g>
<g>
</g>
<g>
</g>
<g>
</g>
<g>
</g>
<g>
</g>
<g>
</g>
<g>
</g>
<g>
</g>
<g>
</g>
<g>
</g>
<g>
</g>
<g>
</g>
<g>
</g>
<g>
</g>
<g>
</g>
</svg>
