<svg height="464pt" viewBox="-12 0 464 464.70517" width="464pt" xmlns="http://www.w3.org/2000/svg"><path d="m184.351562 464.707031h-16c-8.835937 0-16-7.164062-16-16v-24h48v24c0 8.835938-7.164062 16-16 16zm0 0" fill="#5e8569"/><path d="m176.351562 304.707031c15.042969-48.082031 52.992188-89.691406 98.449219-116.992187l-6.351562-42.402344c-7.773438-51.835938-34.832031-98.824219-75.761719-131.566406-9.550781-7.640625-23.121094-7.640625-32.671875 0-40.925781 32.742187-67.984375 79.730468-75.757813 131.566406l-6.351562 42.402344c45.453125 27.300781 83.40625 68.910156 98.445312 116.992187zm0 0" fill="#fbb540"/><path d="m266.886719 188.898438-6.398438-42.402344c-7.40625-49.855469-33.417969-95.058594-72.800781-126.519532-6.621094-5.328124-16.058594-5.328124-22.679688 0-39.382812 31.457032-65.390624 76.65625-72.800781 126.511719l-6.359375 42.402344-15.832031-2.402344 6.402344-42.398437c8.015625-53.8125 36.09375-102.597656 78.597656-136.5625 12.449219-10.035156 30.214844-10.035156 42.664063 0 42.542968 33.96875 70.652343 82.78125 78.671874 136.625l6.402344 42.402344zm0 0" fill="#ea9d2d"/><path d="m272.351562 152.707031v-16h-44.734374c-1.097657-7.59375-2.34375-15.152343-3.878907-22.65625l-1.914062-9.34375h34.527343v-16h-37.808593l-6.550781-32h12.359374c4.417969 0 8-3.582031 8-8 0-4.421875-3.582031-8-8-8h-15.640624l-5.238282-25.601562-15.671875 3.199219 4.550781 22.402343h-8v-32h-16v32h-8l4.585938-22.402343-15.703125-3.199219-5.242187 25.601562h-15.640626c-4.417968 0-8 3.578125-8 8 0 4.417969 3.582032 8 8 8h12.359376l-6.550782 32h-37.808594v16h34.527344l-1.910156 9.34375c-1.535156 7.503907-2.785156 15.0625-3.878906 22.65625h-44.738282v16h42.703126c-1.09375 10.644531-1.660157 21.335938-1.878907 32h-48.824219v16h48.511719l-.40625 32h-.105469v16h48v56h16v-56h32v.085938l16-.175781-.535156-47.910157h48.535156v-16h-48.800781c-.214843-10.675781-.796875-21.363281-1.878906-32zm-64.285156-35.457031c1.316406 6.445312 2.398438 12.941406 3.414063 19.457031h-27.128907v-32h21.144532zm-12.402344-60.542969 6.550782 32h-17.863282v-32zm-38.625 0h11.3125v32h-17.863281zm-12.398437 60.542969 2.566406-12.542969h21.144531v32h-27.128906c.976563-6.515625 2.097656-13.011719 3.417969-19.457031zm-5.480469 35.457031h29.191406v32h-31.199218c.257812-10.683593.863281-21.363281 2.007812-32zm-2.703125 80 .414063-32h31.480468v32zm79.71875 0h-31.824219v-32h31.464844zm-.625-48h-31.199219v-32h29.191407c1.136719 10.628907 1.753906 21.316407 2.007812 32zm0 0" fill="#ea9d2d"/><path d="m352.351562 152.707031-42.71875 17.476563c-60.160156 24.609375-114.527343 74.5625-133.28125 134.523437-18.75-59.960937-73.117187-109.914062-133.277343-134.523437l-42.722657-17.476563 19.601563 35.277344c23.890625 43.050781 41.535156 89.28125 52.398437 137.304687v3.417969c0 57.4375 46.5625 104 104 104s104-46.5625 104-104v-3.417969c10.867188-48.023437 28.511719-94.253906 52.402344-137.304687zm0 0" fill="#6b9777"/><g fill="#6cbae5"><path d="m352.351562 200.707031h16v16h-16zm0 0"/><path d="m384.351562 200.707031h16v16h-16zm0 0"/><path d="m416.351562 200.707031h16v16h-16zm0 0"/><path d="m416.351562 232.707031h16v16h-16zm0 0"/><path d="m416.351562 264.707031h16v72h-16zm0 0"/></g><path d="m158.417969 400.464844c-37.707031-9.421875-50.023438-31.199219-57.679688-63.320313l-4.082031-14.246093 15.390625-4.386719 4.160156 14.578125c7.777344 32.550781 18.953125 45.070312 46.082031 51.855468zm0 0" fill="#5e8569"/><path d="m176.351562 384.707031h16v16h-16zm0 0" fill="#5e8569"/><path d="m440.351562 360.707031c0 48.597657-39.398437 88-88 88-48.601562 0-88-39.402343-88-88 0-48.601562 39.398438-88 88-88 48.601563 0 88 39.398438 88 88zm0 0" fill="#ffda75"/><path d="m312.75 377.679688 11.316406-11.3125 28.28125 28.289062-11.316406 11.308594zm0 0" fill="#6cbae5"/><path d="m358.011719 332.421875 11.3125-11.3125 11.3125 11.3125-11.3125 11.3125zm0 0" fill="#6cbae5"/><path d="m386.292969 338.082031 11.3125-11.3125 11.3125 11.3125-11.3125 11.3125zm0 0" fill="#ea6b65"/><path d="m307.097656 394.640625-11.3125-11.3125 28.289063-28.277344c1.714843-1.71875 4.121093-2.5625 6.535156-2.296875l47.085937 5.230469 31.203126-31.199219 11.308593 11.3125-33.941406 33.933594c-1.726563 1.707031-4.125 2.550781-6.535156 2.296875l-47.089844-5.230469zm0 0" fill="#38c1b4"/><path d="m335.382812 422.929688-11.308593-11.3125 25.558593-25.601563-5.230468-47.085937c-.269532-2.414063.578125-4.820313 2.292968-6.535157l33.9375-33.945312 11.3125 11.3125-31.199218 31.199219 5.230468 47.089843c.265626 2.414063-.578124 4.816407-2.296874 6.535157zm0 0" fill="#4799cf"/></svg>