<?xml version="1.0" encoding="iso-8859-1"?>
<!-- Generator: Adobe Illustrator 19.0.0, SVG Export Plug-In . SVG Version: 6.00 Build 0)  -->
<svg version="1.1" id="Layer_1" xmlns="http://www.w3.org/2000/svg" xmlns:xlink="http://www.w3.org/1999/xlink" x="0px" y="0px"
	 viewBox="0 0 512 512" style="enable-background:new 0 0 512 512;" xml:space="preserve">
<circle style="fill:#71E2EF;" cx="256" cy="256" r="256"/>
<path style="fill:#38C6D9;" d="M507.837,302.178L370.364,164.705l-66.381-17.025l-42.106-17.656l-97.242-37.221l-25.598,25.598
	l7.066,33.876l-2.012,22.268l-10.774,30.599l-16.951,16.951l-3.16,3.16l29.51,152.607l133.356,133.356
	C392.614,502.181,487.264,415.103,507.837,302.178z"/>
<path style="fill:#386895;" d="M256,114.693c-86.026,0-156.013,69.987-156.013,156.013S169.974,426.72,256,426.72
	s156.013-69.987,156.013-156.013S342.028,114.693,256,114.693z M354.725,256.915c-0.445-7.892-1.265-15.662-2.457-23.254
	c11.817,6.949,20.327,14.962,24.881,23.254H354.725z M327.08,256.915h-57.289v-45.303c18.396,1,35.881,4.001,51.54,8.794
	C324.263,231.846,326.246,244.122,327.08,256.915z M269.791,183.992v-36.655c15.755,5.668,29.812,20.795,40.119,41.713
	C297.293,186.408,283.843,184.679,269.791,183.992z M242.209,147.337v36.655c-14.052,0.688-27.501,2.415-40.119,5.058
	C212.397,168.131,226.454,153.004,242.209,147.337z M242.209,211.613v45.303H184.92c0.836-12.793,2.817-25.069,5.749-36.509
	C206.327,215.616,223.815,212.614,242.209,211.613z M157.275,256.915h-22.425c4.555-8.294,13.064-16.305,24.881-23.254
	C158.541,241.254,157.72,249.025,157.275,256.915z M157.275,284.498c0.445,7.892,1.265,15.662,2.457,23.254
	c-11.817-6.949-20.327-14.962-24.881-23.254H157.275z M184.922,284.498h57.287V329.8c-18.396-1-35.881-4.001-51.54-8.794
	C187.738,309.567,185.756,297.293,184.922,284.498z M242.209,357.423v36.655c-15.755-5.668-29.812-20.796-40.119-41.713
	C214.709,355.006,228.159,356.735,242.209,357.423z M269.791,394.078v-36.655c14.052-0.688,27.501-2.415,40.119-5.058
	C299.604,373.282,285.546,388.41,269.791,394.078z M269.791,329.8v-45.302h57.289c-0.836,12.793-2.817,25.069-5.749,36.509
	C305.674,325.799,288.187,328.801,269.791,329.8z M354.725,284.498h22.425c-4.555,8.294-13.064,16.305-24.881,23.254
	C353.461,300.16,354.28,292.39,354.725,284.498z M370.466,212.577c-7.875-5.065-16.789-9.583-26.574-13.459
	c-4.177-12.422-9.456-23.988-15.782-34.34c-0.107-0.176-0.219-0.345-0.326-0.521C345.791,176.442,360.527,193.09,370.466,212.577z
	 M184.218,164.257c-0.109,0.176-0.219,0.345-0.326,0.521c-6.327,10.352-11.605,21.918-15.782,34.34
	c-9.785,3.875-18.699,8.394-26.574,13.459C151.473,193.09,166.209,176.442,184.218,164.257z M141.536,328.838
	c7.875,5.065,16.789,9.583,26.574,13.459c4.177,12.422,9.456,23.988,15.782,34.34c0.107,0.176,0.219,0.345,0.326,0.521
	C166.209,364.973,151.473,348.326,141.536,328.838z M327.782,377.156c0.109-0.176,0.219-0.345,0.326-0.521
	c6.327-10.352,11.605-21.918,15.782-34.34c9.785-3.875,18.699-8.394,26.574-13.459C360.527,348.326,345.791,364.973,327.782,377.156
	z"/>
<path style="fill:#273B7A;" d="M256,114.693c-0.191,0-0.383,0.007-0.574,0.007v312.013c0.191,0,0.383,0.007,0.574,0.007
	c86.026,0,156.013-69.987,156.013-156.013S342.028,114.693,256,114.693z M370.466,212.577c-7.875-5.065-16.789-9.583-26.574-13.459
	c-4.177-12.422-9.456-23.988-15.782-34.34c-0.107-0.176-0.219-0.345-0.326-0.521C345.791,176.442,360.527,193.09,370.466,212.577z
	 M377.149,256.915h-22.425c-0.445-7.892-1.265-15.662-2.457-23.254C364.085,240.611,372.595,248.623,377.149,256.915z
	 M269.791,147.337c15.755,5.668,29.812,20.795,40.119,41.713c-12.617-2.641-26.067-4.37-40.119-5.058V147.337z M269.791,394.078
	v-36.655c14.052-0.688,27.501-2.415,40.119-5.058C299.604,373.282,285.546,388.41,269.791,394.078z M321.331,321.007
	c-15.658,4.792-33.144,7.794-51.54,8.794v-45.302h57.289C326.246,297.293,324.263,309.567,321.331,321.007z M269.791,256.915
	v-45.303c18.396,1,35.881,4.001,51.54,8.794c2.932,11.44,4.913,23.716,5.749,36.509H269.791z M327.782,377.156
	c0.109-0.176,0.219-0.345,0.326-0.521c6.327-10.352,11.605-21.918,15.782-34.34c9.785-3.875,18.699-8.394,26.574-13.459
	C360.527,348.326,345.791,364.973,327.782,377.156z M352.27,307.753c1.191-7.592,2.012-15.363,2.457-23.254h22.425
	C372.595,292.792,364.085,300.803,352.27,307.753z"/>
<path style="fill:#B54324;" d="M174.976,65.293c-29.515,0-53.441,23.926-53.441,53.441c0,40.081,53.441,93.522,53.441,93.522
	s53.441-50.607,53.441-93.522C228.417,89.219,204.491,65.293,174.976,65.293z M174.976,132.094c-7.378,0-13.36-5.982-13.36-13.36
	c0-7.378,5.982-13.36,13.36-13.36s13.36,5.982,13.36,13.36C188.337,126.112,182.356,132.094,174.976,132.094z"/>
<path style="fill:#930000;" d="M174.976,65.293c-0.193,0-0.383,0.012-0.574,0.014v40.095c0.191-0.009,0.381-0.029,0.574-0.029
	c7.378,0,13.36,5.982,13.36,13.36c0,7.378-5.982,13.36-13.36,13.36c-0.193,0-0.383-0.021-0.574-0.029v79.607
	c0.369,0.379,0.574,0.583,0.574,0.583s53.441-50.607,53.441-93.522C228.417,89.219,204.491,65.293,174.976,65.293z"/>
<g>
</g>
<g>
</g>
<g>
</g>
<g>
</g>
<g>
</g>
<g>
</g>
<g>
</g>
<g>
</g>
<g>
</g>
<g>
</g>
<g>
</g>
<g>
</g>
<g>
</g>
<g>
</g>
<g>
</g>
</svg>
