<?xml version="1.0" standalone="no"?>
<!DOCTYPE svg PUBLIC "-//W3C//DTD SVG 20010904//EN"
 "http://www.w3.org/TR/2001/REC-SVG-20010904/DTD/svg10.dtd">
<svg version="1.0" xmlns="http://www.w3.org/2000/svg"
 width="127.000000pt" height="52.000000pt" viewBox="0 0 127.000000 52.000000"
 preserveAspectRatio="xMidYMid meet">

<g transform="translate(0.000000,52.000000) scale(0.100000,-0.100000)"
 stroke="none">
<path d="M688 505 c-49 -27 -81 -121 -94 -278 -6 -78 -10 -90 -32 -108 -22
-17 -27 -18 -34 -5 -5 8 -4 34 2 58 15 67 13 88 -9 88 -11 0 -23 4 -26 10 -21
34 -95 -11 -130 -79 -16 -33 -39 -58 -72 -79 -107 -68 -190 -61 -214 17 -10
35 -9 51 5 104 32 117 97 197 160 197 38 0 56 -15 56 -47 0 -57 -52 -106 -105
-100 -15 1 -20 -4 -20 -23 0 -20 6 -26 27 -28 70 -8 148 73 148 154 0 50 -20
79 -64 94 -159 52 -351 -264 -252 -414 28 -44 64 -61 125 -59 64 1 100 13 154
50 35 24 38 25 55 9 24 -21 50 -20 88 3 30 18 31 18 42 0 14 -22 41 -24 67 -5
17 12 21 12 31 -2 16 -21 29 -10 65 58 32 60 81 117 65 75 -19 -47 -19 -105
-1 -125 22 -25 36 -25 83 -1 37 19 38 19 61 0 30 -25 77 -24 124 1 l38 21 26
-21 c14 -11 39 -20 56 -20 34 0 109 35 134 62 15 16 15 20 2 33 -13 13 -19 12
-51 -11 -38 -27 -98 -37 -105 -18 -2 6 10 17 27 24 39 16 60 46 60 85 0 40
-16 55 -57 55 -44 0 -79 -35 -95 -96 -14 -52 -41 -75 -89 -78 -42 -1 -47 18
-9 34 17 7 37 22 45 34 18 25 20 77 3 94 -15 15 -63 16 -90 1 -21 -11 -57 -82
-58 -113 0 -20 -26 -45 -47 -46 -17 0 -16 44 2 103 27 88 -4 102 -72 31 l-44
-45 27 52 c100 198 96 310 -8 254z m36 -73 c-9 -38 -76 -204 -80 -199 -9 9 20
138 41 185 25 54 50 63 39 14z m-249 -239 c-8 -55 -29 -93 -50 -93 -34 0 -7
106 32 129 26 15 26 15 18 -36z m472 32 c6 -18 -23 -55 -44 -55 -17 0 -17 20
3 48 18 26 32 28 41 7z m190 0 c6 -18 -23 -55 -44 -55 -17 0 -17 20 3 48 18
26 32 28 41 7z"/>
</g>
</svg>
